HIERARCHY
ROOT Hips
{
 OFFSET 0.000000 0.000000 0.000000
 CHANNELS 6 Xposition Yposition Zposition Yrotation Xrotation Zrotation
 JOINT Chest
 {
  OFFSET 0.000000 9.585900 0.002600
  CHANNELS 3 Yrotation Xrotation Zrotation
  JOINT Chest2
  {
   OFFSET 0.000000 9.601200 -0.005300
   CHANNELS 3 Yrotation Xrotation Zrotation
   JOINT Chest3
   {
    OFFSET 0.000000 9.561800 0.000000
    CHANNELS 3 Yrotation Xrotation Zrotation
    JOINT Chest4
    {
     OFFSET 0.000000 9.552100 0.000000
     CHANNELS 3 Yrotation Xrotation Zrotation
     JOINT Neck
     {
      OFFSET 0.000000 14.453000 0.000000
      CHANNELS 3 Yrotation Xrotation Zrotation
      JOINT Head
      {
       OFFSET 0.000000 8.936500 -0.011300
       CHANNELS 3 Yrotation Xrotation Zrotation
       End Site
       {
        OFFSET 0.000000 17.073600 -0.006000
       }
      }
     }
     JOINT RightCollar
     {
      OFFSET -2.921100 9.558500 0.000000
      CHANNELS 3 Yrotation Xrotation Zrotation
      JOINT RightShoulder
      {
       OFFSET -13.519700 0.000000 0.000000
       CHANNELS 3 Yrotation Xrotation Zrotation
       JOINT RightElbow
       {
        OFFSET 0.000000 -29.696600 0.000000
        CHANNELS 3 Yrotation Xrotation Zrotation
        JOINT RightWrist
        {
         OFFSET 0.000000 -24.004700 0.000000
         CHANNELS 3 Yrotation Xrotation Zrotation
         End Site
         {
          OFFSET 0.000000 -17.728500 0.000000
         }
        }
       }
      }
     }
     JOINT LeftCollar
     {
      OFFSET 2.921100 9.558500 0.000000
      CHANNELS 3 Yrotation Xrotation Zrotation
      JOINT LeftShoulder
      {
       OFFSET 13.519700 0.000000 0.000000
       CHANNELS 3 Yrotation Xrotation Zrotation
       JOINT LeftElbow
       {
        OFFSET 0.000000 -29.696600 0.000000
        CHANNELS 3 Yrotation Xrotation Zrotation
        JOINT LeftWrist
        {
         OFFSET 0.000000 -24.004700 0.000000
         CHANNELS 3 Yrotation Xrotation Zrotation
         End Site
         {
          OFFSET 0.000000 -17.728500 0.000000
         }
        }
       }
      }
     }
    }
   }
  }
 }
 JOINT RightHip
 {
  OFFSET -7.771700 -0.012900 -0.001300
  CHANNELS 3 Yrotation Xrotation Zrotation
  JOINT RightKnee
  {
   OFFSET 0.000000 -40.869800 0.001200
   CHANNELS 3 Yrotation Xrotation Zrotation
   JOINT RightAnkle
   {
    OFFSET 0.000000 -39.717900 0.002100
    CHANNELS 3 Yrotation Xrotation Zrotation
    JOINT RightToe
    {
     OFFSET 0.000000 -4.965400 11.033500
     CHANNELS 3 Yrotation Xrotation Zrotation
     End Site
     {
      OFFSET 0.000000 -1.423100 5.872300
     }
    }
   }
  }
 }
 JOINT LeftHip
 {
  OFFSET 7.771700 -0.012900 -0.001300
  CHANNELS 3 Yrotation Xrotation Zrotation
  JOINT LeftKnee
  {
   OFFSET 0.000000 -40.869800 0.001200
   CHANNELS 3 Yrotation Xrotation Zrotation
   JOINT LeftAnkle
   {
    OFFSET 0.000000 -39.717900 0.002100
    CHANNELS 3 Yrotation Xrotation Zrotation
    JOINT LeftToe
    {
     OFFSET 0.000000 -4.965400 11.033500
     CHANNELS 3 Yrotation Xrotation Zrotation
     End Site
     {
      OFFSET 0.000000 -1.423100 5.872300
     }
    }
   }
  }
 }
}
MOTION
Frames: 15
Frame Time: 0.008333
-198.612720 58.027274 28.178699 172.532592 -49.911905 -3.110906 5.210685 22.626617 3.337440 2.717356 12.964889 1.693365 3.480437 16.183543 2.235064 2.716765 12.956773 1.699359 0.159767 16.047781 0.631465 0.075317 -6.000448 1.147803 1.577263 4.179873 0.859863 4.999314 -14.362295 -11.456005 -88.680489 -62.166691 129.088969 3.985820 18.905462 -21.757911 -10.140374 1.200601 -1.386116 -0.669502 -11.618478 15.983956 62.990597 -48.867660 -116.014494 8.937907 -1.420573 16.422530 3.926544 -22.543929 -0.308793 -37.879667 73.425760 -39.348583 5.725732 -12.706656 9.247907 0.031276 -0.132135 0.024998 -2.358332 -21.215119 11.269541 52.797314 79.448806 52.219570 4.291015 -15.913035 -16.292082 0.057164 0.127326 0.028418
-198.614091 58.026900 28.178698 172.529911 -49.912477 -3.111850 5.214532 22.630808 3.339363 2.718132 12.964428 1.692401 3.480574 16.182764 2.234929 2.717161 12.960755 1.695010 0.158435 16.043985 0.628197 0.076552 -6.010454 1.137158 1.588027 4.178739 0.846408 4.992192 -14.361320 -11.440215 -88.700538 -62.166980 129.101521 3.986577 18.915842 -21.753183 -10.140300 1.199626 -1.387514 -0.645338 -11.617204 15.979669 62.966315 -48.857467 -116.014866 8.934541 -1.428961 16.436986 3.927926 -22.545397 -0.304077 -37.895720 73.426142 -39.366410 5.731820 -12.710604 9.244808 0.028642 -0.133871 0.026082 -2.356564 -21.216163 11.272457 52.810390 79.452754 52.230924 4.297834 -15.915783 -16.290803 0.052763 0.127905 0.027581
-198.615745 58.026340 28.178749 172.532249 -49.911637 -3.114202 5.215936 22.634200 3.335619 2.720982 12.964552 1.693696 3.484038 16.192176 2.229152 2.716401 12.955185 1.702254 0.154420 16.037071 0.621742 0.072171 -6.019877 1.133274 1.589105 4.173160 0.844796 4.990387 -14.358197 -11.436167 -88.705823 -62.178489 129.103314 3.988290 18.907736 -21.749327 -10.143626 1.194831 -1.392123 -0.634841 -11.617248 15.984166 62.962067 -48.845469 -116.024728 8.927097 -1.426661 16.445259 3.926302 -22.546755 -0.302772 -37.901581 73.426462 -39.374524 5.728485 -12.712970 9.246428 0.033212 -0.133411 0.025954 -2.358424 -21.220407 11.271711 52.819803 79.457499 52.240570 4.304493 -15.912973 -16.289990 0.043576 0.125416 0.025454
-198.616975 58.025915 28.178689 172.534871 -49.912455 -3.118711 5.221985 22.638203 3.337532 2.721501 12.966219 1.692069 3.483881 16.192482 2.228902 2.719511 12.961392 1.696340 0.152269 16.024913 0.630244 0.063291 -6.030008 1.125215 1.586640 4.161165 0.856710 4.993040 -14.354092 -11.438386 -88.712040 -62.184237 129.108458 3.988642 18.907447 -21.745222 -10.148867 1.187686 -1.389362 -0.629397 -11.617323 15.991421 62.968402 -48.842494 -116.037752 8.935100 -1.420422 16.449408 3.926194 -22.544612 -0.300711 -37.900693 73.425066 -39.372824 5.735720 -12.719678 9.245389 0.031060 -0.129530 0.026016 -2.362125 -21.219572 11.274919 52.810663 79.459451 52.231124 4.297241 -15.915169 -16.289462 0.048473 0.125395 0.025299
-198.619904 58.024960 28.178789 172.544733 -49.909197 -3.118613 5.218583 22.638926 3.327402 2.718864 12.964896 1.694270 3.482037 16.196765 2.223209 2.723986 12.958317 1.699628 0.149898 16.021784 0.628964 0.053997 -6.040941 1.116225 1.584392 4.164605 0.852714 4.991358 -14.357820 -11.429267 -88.699940 -62.192500 129.092882 3.988984 18.902325 -21.738221 -10.150833 1.188046 -1.398576 -0.629123 -11.616671 16.000348 62.974775 -48.831846 -116.042720 8.936892 -1.407806 16.449931 3.924979 -22.549306 -0.309972 -37.926205 73.426573 -39.399277 5.729805 -12.722626 9.250218 0.025530 -0.131770 0.022687 -2.362423 -21.224331 11.266994 52.784499 79.462582 52.207767 4.296513 -15.917003 -16.295765 0.054981 0.126859 0.032082
-198.620620 58.024266 28.179210 172.546141 -49.907534 -3.125456 5.221187 22.637782 3.331028 2.718902 12.965837 1.694517 3.478509 16.201218 2.216466 2.725775 12.959470 1.699882 0.146410 16.014645 0.624943 0.048859 -6.054170 1.109714 1.590277 4.164024 0.846048 4.987670 -14.354578 -11.425130 -88.698826 -62.195566 129.095267 3.983478 18.892370 -21.744781 -10.146292 1.183254 -1.401154 -0.630710 -11.616148 16.008644 62.970213 -48.825473 -116.041215 8.945015 -1.401326 16.453080 3.922310 -22.554319 -0.306765 -37.926818 73.430573 -39.397043 5.731010 -12.720015 9.249796 0.015833 -0.136883 0.017817 -2.364577 -21.226022 11.275697 52.768900 79.466590 52.191719 4.300710 -15.921430 -16.297127 0.060086 0.129231 0.032958
-198.621073 58.023590 28.179800 172.546165 -49.905821 -3.133047 5.225134 22.636075 3.335570 2.715862 12.971601 1.681878 3.481398 16.199256 2.224304 2.724276 12.964073 1.694635 0.138081 16.006940 0.619672 0.033630 -6.080192 1.101217 1.597073 4.161286 0.850567 4.985262 -14.353576 -11.428342 -88.702709 -62.192158 129.101692 3.982220 18.893776 -21.748423 -10.138144 1.175481 -1.392854 -0.631182 -11.614621 16.009189 62.967171 -48.823300 -116.039404 8.953402 -1.395971 16.454201 3.919789 -22.558557 -0.300472 -37.911632 73.431956 -39.381544 5.730261 -12.714656 9.251124 0.033435 -0.140744 0.016516 -2.366909 -21.228001 11.284699 52.769331 79.465328 52.192671 4.300519 -15.923717 -16.297190 0.063871 0.130700 0.031944
-198.621899 58.023780 28.179827 172.546179 -49.909967 -3.137966 5.228461 22.639585 3.335113 2.712963 12.975309 1.682570 3.481652 16.200395 2.223566 2.722712 12.966019 1.692749 0.140487 16.000394 0.620581 0.021302 -6.092018 1.092375 1.602049 4.168418 0.837684 4.981817 -14.365444 -11.415111 -88.702659 -62.191319 129.102513 3.980689 18.900931 -21.750288 -10.132043 1.172700 -1.390981 -0.627991 -11.613254 16.004600 62.961540 -48.825033 -116.038329 8.949567 -1.394679 16.455970 3.918315 -22.555837 -0.295227 -37.924680 73.431832 -39.395176 5.732443 -12.714540 9.253113 0.020990 -0.146041 0.014235 -2.367622 -21.224140 11.287945 52.798494 79.463794 52.221610 4.301552 -15.928405 -16.295422 0.059433 0.131707 0.029179
-198.623350 58.023126 28.180725 172.535816 -49.906959 -3.131623 5.231558 22.638915 3.329021 2.712606 12.978632 1.682771 3.484803 16.198411 2.224532 2.722081 12.967174 1.689404 0.135721 15.994720 0.616623 0.021718 -6.097609 1.091971 1.607243 4.164772 0.839008 4.978028 -14.362438 -11.415192 -88.706830 -62.189926 129.107285 3.977566 18.908185 -21.751860 -10.135600 1.176905 -1.392985 -0.622705 -11.617618 16.009428 62.948296 -48.793870 -116.034213 8.943801 -1.377472 16.448560 3.924573 -22.560831 -0.293233 -37.939254 73.426716 -39.412845 5.732845 -12.712818 9.262499 0.020528 -0.145741 0.009413 -2.361213 -21.227644 11.288058 52.787808 79.466640 52.211169 4.306897 -15.930297 -16.293322 0.056962 0.132234 0.027322
-198.623736 58.022924 28.181757 172.525447 -49.905902 -3.131105 5.227598 22.649159 3.320836 2.720348 12.974366 1.686238 3.492875 16.192092 2.228647 2.713796 12.983485 1.683678 0.134856 15.976731 0.613250 0.008864 -6.114604 1.077656 1.614865 4.156593 0.829542 4.962611 -14.355461 -11.406296 -88.727804 -62.190029 129.137180 3.969533 18.910830 -21.752888 -10.130315 1.166732 -1.390432 -0.616309 -11.618105 16.009052 62.946308 -48.793893 -116.036264 8.963420 -1.371834 16.438064 3.927567 -22.563230 -0.285260 -37.956389 73.420254 -39.428217 5.736207 -12.710598 9.268509 0.021922 -0.148120 0.004489 -2.356581 -21.228692 11.294135 52.787165 79.465351 52.211910 4.307821 -15.931033 -16.292282 0.056261 0.133182 0.025724
-198.623953 58.022499 28.183287 172.515018 -49.901805 -3.131176 5.232612 22.647056 3.324031 2.717852 12.978472 1.683423 3.494101 16.197690 2.225817 2.721066 12.974646 1.686839 0.123828 15.977720 0.604039 -0.000901 -6.138979 1.065251 1.622063 4.163244 0.813010 4.944822 -14.355487 -11.388387 -88.731243 -62.200318 129.137166 3.960604 18.909237 -21.749095 -10.135568 1.169274 -1.397048 -0.609459 -11.624197 16.016141 62.940065 -48.788625 -116.032185 8.985770 -1.363728 16.414165 3.927154 -22.568171 -0.278621 -37.971574 73.408106 -39.434522 5.741695 -12.703380 9.261383 0.033001 -0.147414 0.005965 -2.351734 -21.230290 11.302108 52.743162 79.461461 52.168071 4.303787 -15.930176 -16.286449 0.049602 0.136645 0.022366
-198.624985 58.022655 28.184347 172.510284 -49.901282 -3.129742 5.232556 22.648700 3.322751 2.715546 12.981875 1.681679 3.482732 16.208219 2.215688 2.730192 12.968687 1.686456 0.121885 15.969139 0.598906 -0.003741 -6.159233 1.058297 1.633720 4.157743 0.810957 4.935170 -14.347743 -11.382644 -88.747365 -62.201928 129.151675 3.956501 18.915158 -21.745543 -10.132413 1.165796 -1.403073 -0.603684 -11.629755 16.028146 62.926487 -48.773135 -116.021633 8.980270 -1.355243 16.394564 3.919743 -22.567557 -0.278313 -37.950847 73.404274 -39.417617 5.747768 -12.701259 9.262193 0.030120 -0.146397 0.004673 -2.350178 -21.230022 11.305079 52.736576 79.460416 52.158756 4.303443 -15.930000 -16.284195 0.050498 0.136507 0.022264
-198.625817 58.022613 28.185700 172.505156 -49.898449 -3.129080 5.234646 22.649775 3.325783 2.714373 12.980381 1.679196 3.475731 16.212770 2.211386 2.716178 12.979379 1.679212 0.117971 15.948600 0.588369 0.008698 -6.176526 1.052352 1.651735 4.151260 0.800553 4.935604 -14.352939 -11.370400 -88.750564 -62.204887 129.148143 3.957920 18.912723 -21.736270 -10.115315 1.154049 -1.410908 -0.601867 -11.630839 16.037206 62.905156 -48.756144 -116.017760 8.966944 -1.353697 16.385611 3.914409 -22.572153 -0.276217 -37.946914 73.400965 -39.416561 5.754696 -12.695365 9.260979 0.017634 -0.149267 0.005481 -2.349664 -21.232022 11.308138 52.705765 79.463618 52.130192 4.306362 -15.928728 -16.288917 0.053225 0.135515 0.024998
-198.627141 58.022833 28.186697 172.500685 -49.897325 -3.125819 5.230682 22.657337 3.317918 2.717779 12.974091 1.682223 3.470538 16.218392 2.206607 2.716020 12.977785 1.678300 0.113610 15.940708 0.582433 0.015378 -6.185032 1.049426 1.659773 4.160798 0.793402 4.932515 -14.362274 -11.363179 -88.749613 -62.209327 129.142871 3.950992 18.920308 -21.734399 -10.108647 1.150327 -1.416284 -0.603892 -11.623410 16.043939 62.914863 -48.756727 -116.029320 8.979721 -1.349174 16.363965 3.911385 -22.574798 -0.277060 -37.953214 73.397743 -39.424703 5.750141 -12.689718 9.266806 0.021055 -0.151331 0.002888 -2.348404 -21.232605 11.306195 52.685897 79.464905 52.113062 4.310811 -15.925521 -16.290908 0.055288 0.133191 0.024171
-198.628299 58.023186 28.187500 172.504288 -49.896566 -3.130002 5.228535 22.659487 3.317674 2.709355 12.986525 1.674411 3.472850 16.213628 2.207856 2.722184 12.969269 1.679169 0.102678 15.938113 0.575615 0.021298 -6.194997 1.047110 1.658976 4.171814 0.786592 4.923405 -14.358621 -11.359152 -88.759426 -62.207239 129.155813 3.948484 18.936647 -21.725777 -10.108438 1.150327 -1.423811 -0.602191 -11.616838 16.053272 62.922257 -48.755699 -116.044970 8.984057 -1.348022 16.356427 3.906567 -22.575856 -0.276026 -37.958864 73.395897 -39.430763 5.745046 -12.686138 9.273101 0.029758 -0.152882 0.000659 -2.351959 -21.233082 11.306227 52.687401 79.465724 52.117039 4.312214 -15.926576 -16.294283 0.060824 0.132496 0.025853
